<svg width="110" height="110" viewBox="0 0 110 110" fill="none" xmlns="http://www.w3.org/2000/svg">
<circle cx="55" cy="55" r="49.5" fill="#FFEB50" stroke="#E58A00" stroke-width="11"/>
<path d="M48.3558 68.3977V67.6591C48.3748 64.2311 48.6967 61.5038 49.3217 59.4773C49.9657 57.4508 50.8748 55.822 52.049 54.5909C53.2232 53.3409 54.6532 52.1951 56.3388 51.1534C57.4941 50.4337 58.5263 49.6477 59.4354 48.7955C60.3634 47.9242 61.0926 46.9583 61.6229 45.8977C62.1532 44.8182 62.4183 43.6155 62.4183 42.2898C62.4183 40.7936 62.0679 39.4962 61.3672 38.3977C60.6664 37.2992 59.7195 36.447 58.5263 35.8409C57.352 35.2348 56.0357 34.9318 54.5774 34.9318C53.2327 34.9318 51.9543 35.2254 50.7422 35.8125C49.549 36.3807 48.5547 37.2519 47.7592 38.4261C46.9827 39.5814 46.5471 41.0492 46.4524 42.8295H36.3388C36.4335 39.2311 37.3047 36.2197 38.9524 33.7955C40.6191 31.3712 42.8161 29.553 45.5433 28.3409C48.2895 27.1288 51.3198 26.5227 54.6342 26.5227C58.2517 26.5227 61.4335 27.1572 64.1797 28.4261C66.9448 29.6951 69.0945 31.5038 70.6286 33.8523C72.1816 36.1818 72.9581 38.947 72.9581 42.1477C72.9581 44.3068 72.6077 46.2386 71.907 47.9432C71.2251 49.6477 70.2498 51.1629 68.9808 52.4886C67.7119 53.8144 66.2062 54.9981 64.4638 56.0398C62.9297 56.9867 61.6702 57.9716 60.6854 58.9943C59.7195 60.017 58.9998 61.2197 58.5263 62.6023C58.0717 63.9659 57.835 65.6515 57.8161 67.6591V68.3977H48.3558ZM53.299 86.125C51.5945 86.125 50.1267 85.5189 48.8956 84.3068C47.6645 83.0947 47.049 81.6174 47.049 79.875C47.049 78.1705 47.6645 76.7121 48.8956 75.5C50.1267 74.2879 51.5945 73.6818 53.299 73.6818C54.9846 73.6818 56.4429 74.2879 57.674 75.5C58.924 76.7121 59.549 78.1705 59.549 79.875C59.549 81.0303 59.2554 82.0814 58.6683 83.0284C58.1001 83.9754 57.3426 84.733 56.3956 85.3011C55.4676 85.8504 54.4354 86.125 53.299 86.125Z" fill="#E58A00"/>
</svg>
