<svg width="61" height="61" viewBox="0 0 61 61" fill="none" xmlns="http://www.w3.org/2000/svg">
<path opacity="0.2" d="M24.7811 9.53125C24.7811 8.40019 25.1165 7.29453 25.7449 6.35409C26.3733 5.41364 27.2665 4.68066 28.3114 4.24782C29.3564 3.81498 30.5062 3.70173 31.6156 3.92239C32.7249 4.14305 33.7439 4.6877 34.5437 5.48749C35.3434 6.28727 35.8881 7.30625 36.1088 8.41558C36.3294 9.52491 36.2162 10.6748 35.7833 11.7197C35.3505 12.7647 34.6175 13.6578 33.6771 14.2862C32.7366 14.9146 31.631 15.25 30.4999 15.25C28.9832 15.25 27.5286 14.6475 26.4561 13.575C25.3836 12.5025 24.7811 11.048 24.7811 9.53125ZM50.6323 33.2426L39.8334 20.9997C39.2968 20.391 38.6369 19.9035 37.8974 19.5695C37.1579 19.2354 36.3557 19.0626 35.5443 19.0625H25.4555C24.644 19.0626 23.8419 19.2354 23.1024 19.5695C22.3629 19.9035 21.703 20.391 21.1664 20.9997L10.3675 33.2426C9.83034 33.7798 9.52856 34.5083 9.52856 35.268C9.52856 36.0277 9.83034 36.7562 10.3675 37.2934C10.9047 37.8306 11.6332 38.1323 12.3929 38.1323C13.1526 38.1323 13.8811 37.8306 14.4183 37.2934L22.8749 30.5L17.4254 51.2138C17.1177 51.8992 17.0922 52.6781 17.3542 53.3822C17.6163 54.0863 18.1449 54.6589 18.8258 54.9764C19.5067 55.2938 20.2852 55.3305 20.9929 55.0786C21.7007 54.8266 22.2809 54.3063 22.608 53.63L30.4999 40.0313L38.3918 53.63C38.7189 54.3063 39.2991 54.8266 40.0068 55.0786C40.7146 55.3305 41.4931 55.2938 42.174 54.9764C42.8549 54.6589 43.3835 54.0863 43.6456 53.3822C43.9076 52.6781 43.882 51.8992 43.5744 51.2138L38.1249 30.5L46.5863 37.2886C46.8522 37.5546 47.168 37.7656 47.5155 37.9095C47.863 38.0535 48.2355 38.1276 48.6116 38.1276C48.9878 38.1276 49.3603 38.0535 49.7078 37.9095C50.0553 37.7656 50.3711 37.5546 50.637 37.2886C50.903 37.0227 51.114 36.7069 51.2579 36.3594C51.4019 36.0119 51.476 35.6394 51.476 35.2632C51.476 34.8871 51.4019 34.5146 51.2579 34.1671C51.114 33.8196 50.903 33.5038 50.637 33.2379L50.6323 33.2426Z" fill="#E58A00"/>
<path d="M38.1249 9.53125C38.1249 8.02317 37.6777 6.54896 36.8399 5.29503C36.0021 4.04111 34.8112 3.06379 33.4179 2.48667C32.0246 1.90955 30.4915 1.75855 29.0124 2.05277C27.5333 2.34698 26.1746 3.07319 25.1083 4.13956C24.0419 5.20594 23.3157 6.56459 23.0215 8.04369C22.7272 9.5228 22.8782 11.0559 23.4554 12.4492C24.0325 13.8425 25.0098 15.0334 26.2637 15.8712C27.5176 16.7091 28.9919 17.1563 30.4999 17.1563C32.5222 17.1563 34.4617 16.3529 35.8916 14.9229C37.3216 13.493 38.1249 11.5535 38.1249 9.53125ZM30.4999 13.3438C29.7459 13.3438 29.0088 13.1202 28.3818 12.7012C27.7549 12.2823 27.2662 11.6869 26.9776 10.9902C26.6891 10.2936 26.6136 9.52702 26.7607 8.78747C26.9078 8.04792 27.2709 7.3686 27.8041 6.83541C28.3373 6.30222 29.0166 5.93912 29.7562 5.79201C30.4957 5.6449 31.2623 5.7204 31.9589 6.00896C32.6556 6.29752 33.251 6.78618 33.6699 7.41314C34.0888 8.0401 34.3124 8.77721 34.3124 9.53125C34.3124 10.5424 33.9108 11.5121 33.1958 12.2271C32.4808 12.9421 31.5111 13.3438 30.4999 13.3438ZM52.0263 31.9416L41.2631 19.7368C40.5475 18.9257 39.6674 18.276 38.6814 17.8311C37.6955 17.3862 36.6261 17.1561 35.5444 17.1563H25.4555C24.3738 17.1561 23.3044 17.3862 22.3184 17.8311C21.3324 18.276 20.4524 18.9257 19.7368 19.7368L8.97362 31.9416C8.09954 32.8356 7.61179 34.0372 7.6155 35.2875C7.61921 36.5377 8.1141 37.7364 8.99347 38.6252C9.87284 39.5139 11.0662 40.0215 12.3164 40.0385C13.5665 40.0555 14.7733 39.5805 15.6765 38.7159L19.5604 35.5992L15.6193 50.5824C15.0973 51.7341 15.0542 53.046 15.4995 54.2296C15.9448 55.4131 16.842 56.3712 17.9938 56.8932C19.1455 57.4152 20.4574 57.4583 21.641 57.013C22.8245 56.5677 23.7826 55.6705 24.3046 54.5188L30.4999 43.8271L36.6953 54.5188C37.2406 55.6319 38.1981 56.4887 39.3647 56.9075C40.5313 57.3263 41.8152 57.2741 42.944 56.7619C44.0727 56.2498 44.9575 55.318 45.4106 54.1643C45.8638 53.0106 45.8496 51.7258 45.3711 50.5824L41.4394 35.5992L45.3234 38.7159C46.2266 39.5805 47.4333 40.0555 48.6835 40.0385C49.9336 40.0215 51.127 39.5139 52.0064 38.6252C52.8858 37.7364 53.3807 36.5377 53.3844 35.2875C53.3881 34.0372 52.9003 32.8356 52.0263 31.9416ZM49.2837 35.9376C49.1951 36.0262 49.09 36.0965 48.9743 36.1445C48.8586 36.1924 48.7346 36.2171 48.6093 36.2171C48.4841 36.2171 48.36 36.1924 48.2443 36.1445C48.1286 36.0965 48.0235 36.0262 47.935 35.9376C47.8849 35.8899 47.8349 35.8423 47.7801 35.7994L39.3163 29.0131C39.004 28.7638 38.6212 28.6189 38.222 28.599C37.8228 28.5792 37.4275 28.6852 37.0919 28.9023C36.7563 29.1194 36.4974 29.4364 36.3518 29.8086C36.2062 30.1809 36.1813 30.5894 36.2806 30.9766L41.7325 51.707C41.7606 51.8176 41.7989 51.9253 41.8469 52.0287C41.9019 52.1424 41.9338 52.2659 41.9406 52.3921C41.9475 52.5182 41.9292 52.6444 41.8868 52.7634C41.8445 52.8824 41.7789 52.9918 41.6939 53.0852C41.6088 53.1787 41.5061 53.2543 41.3916 53.3076C41.2771 53.361 41.1532 53.3911 41.027 53.3961C40.9008 53.4012 40.7748 53.3811 40.6564 53.337C40.538 53.293 40.4296 53.2258 40.3374 53.1395C40.2452 53.0531 40.1711 52.9493 40.1194 52.8341C40.0961 52.7826 40.0699 52.7324 40.0407 52.684L32.1488 39.0781C31.9813 38.7893 31.7408 38.5495 31.4514 38.3828C31.162 38.2161 30.8339 38.1284 30.4999 38.1284C30.166 38.1284 29.8379 38.2161 29.5485 38.3828C29.2591 38.5495 29.0186 38.7893 28.851 39.0781L20.9687 52.6721C20.9395 52.7205 20.9133 52.7706 20.8901 52.8222C20.8371 52.9358 20.7623 53.0378 20.6699 53.1224C20.5775 53.2071 20.4693 53.2727 20.3515 53.3154C20.1743 53.3804 19.9817 53.3913 19.7983 53.3467C19.6149 53.3021 19.4488 53.204 19.3212 53.0649C19.1936 52.9258 19.1101 52.7519 19.0815 52.5653C19.0528 52.3787 19.0802 52.1878 19.1601 52.0168C19.2082 51.9134 19.2465 51.8057 19.2745 51.6951L24.7192 30.9766C24.8185 30.5894 24.7937 30.1809 24.6481 29.8086C24.5025 29.4364 24.2436 29.1194 23.908 28.9023C23.5724 28.6852 23.1771 28.5792 22.7779 28.599C22.3787 28.6189 21.9959 28.7638 21.6835 29.0131L13.2198 35.7994C13.165 35.8423 13.1149 35.8899 13.0649 35.9376C12.9774 36.0299 12.8722 36.1037 12.7557 36.1548C12.6392 36.2058 12.5136 36.233 12.3864 36.2347C12.2592 36.2365 12.1329 36.2127 12.015 36.1649C11.8971 36.1171 11.79 36.0461 11.7 35.9563C11.6099 35.8664 11.5388 35.7594 11.4908 35.6416C11.4427 35.5238 11.4188 35.3976 11.4203 35.2703C11.4218 35.1431 11.4488 35.0175 11.4996 34.9009C11.5504 34.7843 11.6241 34.679 11.7162 34.5913C11.7448 34.5627 11.771 34.5341 11.7972 34.5031L22.5962 22.2579C22.9541 21.8525 23.3941 21.5279 23.8871 21.3056C24.3801 21.0834 24.9148 20.9685 25.4555 20.9688H35.5444C36.0851 20.9685 36.6198 21.0834 37.1127 21.3056C37.6057 21.5279 38.0458 21.8525 38.4037 22.2579L49.2026 34.5031C49.2288 34.5341 49.2551 34.5627 49.2837 34.5913C49.4619 34.77 49.562 35.0121 49.562 35.2644C49.562 35.5168 49.4619 35.7589 49.2837 35.9376Z" fill="#E58A00"/>
</svg>
