<svg width="48" height="48" viewBox="0 0 48 48" fill="none" xmlns="http://www.w3.org/2000/svg">
<g clip-path="url(#clip0_142_693)">
<mask id="mask0_142_693" style="mask-type:luminance" maskUnits="userSpaceOnUse" x="0" y="0" width="48" height="48">
<path d="M0 0H48V48H0V0Z" fill="white"/>
</mask>
<g mask="url(#mask0_142_693)">
<path fill-rule="evenodd" clip-rule="evenodd" d="M37.42 20H42V19.96C44.2 19.96 46 21.76 46 23.96C46 26.16 44.2 27.96 42 27.96H37.42C37.28 28.42 37.12 28.88 36.94 29.32C36.74 29.76 36.54 30.2 36.32 30.62L39.56 33.86C41.12 35.42 41.12 37.96 39.56 39.52C38 41.08 35.46 41.08 33.9 39.52L30.66 36.28C30.24 36.52 29.8 36.72 29.36 36.9C28.92 37.08 28.46 37.24 28 37.38V41.96C28 44.16 26.2 45.96 24 45.96C21.8 45.96 20 44.16 20 41.96V37.38C19.54 37.24 19.08 37.08 18.64 36.9C18.2 36.7 17.76 36.5 17.34 36.28L14.1 39.52C12.54 41.08 10 41.08 8.44 39.52C6.88 37.96 6.88 35.42 8.44 33.86L11.68 30.62C11.44 30.2 11.24 29.76 11.06 29.32C10.88 28.88 10.72 28.42 10.58 27.96H6C3.8 27.96 2 26.16 2 23.96C2 21.76 3.8 19.96 6 19.96H10.66C10.9353 19.0477 11.297 18.1637 11.74 17.32L8.5 14.08C6.94 12.52 6.94 9.98 8.5 8.42C10.06 6.86 12.6 6.86 14.16 8.42L17.4 11.66C17.82 11.44 18.24 11.24 18.68 11.06H18.7C19.14 10.88 19.58 10.72 20.04 10.58V6C20.04 3.8 21.84 2 24.04 2C26.24 2 28.04 3.8 28.04 6V10.62C28.5 10.76 28.94 10.92 29.38 11.1H29.4C29.84 11.28 30.26 11.48 30.68 11.7L33.92 8.46C35.48 6.9 38.02 6.9 39.58 8.46C41.14 10.02 41.14 12.56 39.58 14.12L36.34 17.36C36.783 18.2037 37.1447 19.0877 37.42 20ZM32 24C32 26.1217 31.1571 28.1566 29.6569 29.6569C28.1566 31.1571 26.1217 32 24 32C21.8783 32 19.8434 31.1571 18.3431 29.6569C16.8429 28.1566 16 26.1217 16 24C16 21.8783 16.8429 19.8434 18.3431 18.3431C19.8434 16.8429 21.8783 16 24 16C26.1217 16 28.1566 16.8429 29.6569 18.3431C31.1571 19.8434 32 21.8783 32 24Z" fill="#A0CFFF"/>
<path d="M42 20V21.5C42.3978 21.5 42.7794 21.342 43.0607 21.0607C43.342 20.7794 43.5 20.3978 43.5 20H42ZM37.42 20L35.984 20.436C36.0775 20.7439 36.2677 21.0136 36.5262 21.2052C36.7848 21.3968 37.0982 21.5002 37.42 21.5V20ZM36.34 17.36L35.28 16.3C35.0541 16.526 34.9063 16.8182 34.8581 17.1341C34.8099 17.4499 34.8638 17.7729 35.012 18.056L36.34 17.36ZM30.68 11.7L29.984 13.028C30.2671 13.1762 30.5901 13.2301 30.9059 13.1819C31.2218 13.1337 31.514 12.9859 31.74 12.76L30.68 11.7ZM29.4 11.1L29.968 9.712C29.7871 9.64044 29.5946 9.60248 29.4 9.6V11.1ZM29.38 11.1L28.812 12.488C28.9929 12.5596 29.1854 12.5975 29.38 12.6V11.1ZM28.04 10.62H26.54C26.54 11.28 26.972 11.862 27.604 12.056L28.04 10.62ZM20.04 10.58L20.476 12.016C20.7839 11.9225 21.0536 11.7323 21.2452 11.4738C21.4368 11.2152 21.5402 10.9018 21.54 10.58H20.04ZM18.7 11.06V12.56C18.8946 12.5575 19.0871 12.5196 19.268 12.448L18.7 11.06ZM18.68 11.06V9.56C18.4854 9.56248 18.2929 9.60044 18.112 9.672L18.68 11.06ZM17.4 11.66L16.34 12.72C16.566 12.9459 16.8582 13.0937 17.1741 13.1419C17.4899 13.1901 17.8129 13.1362 18.096 12.988L17.4 11.66ZM11.74 17.32L13.068 18.016C13.2162 17.7329 13.2701 17.4099 13.2219 17.0941C13.1737 16.7782 13.0259 16.486 12.8 16.26L11.74 17.32ZM10.66 19.96V21.46C10.9818 21.4602 11.2952 21.3568 11.5538 21.1652C11.8123 20.9736 12.0025 20.7039 12.096 20.396L10.66 19.96ZM10.58 27.96L12.016 27.524C11.9225 27.2161 11.7323 26.9464 11.4738 26.7548C11.2152 26.5632 10.9018 26.4598 10.58 26.46V27.96ZM11.68 30.62L12.74 31.68C12.9725 31.4474 13.1222 31.1449 13.1659 30.8189C13.2096 30.4929 13.145 30.1616 12.982 29.876L11.68 30.62ZM17.34 36.28L18.036 34.952C17.7529 34.8038 17.4299 34.7499 17.1141 34.7981C16.7982 34.8463 16.506 34.9941 16.28 35.22L17.34 36.28ZM18.64 36.9L18.02 38.266L18.072 38.288L18.64 36.9ZM20 37.38H21.5C21.5002 37.0582 21.3968 36.7448 21.2052 36.4862C21.0136 36.2276 20.7439 36.0375 20.436 35.944L20 37.38ZM28 37.38L27.564 35.944C27.2561 36.0375 26.9864 36.2276 26.7948 36.4862C26.6032 36.7448 26.4998 37.0582 26.5 37.38H28ZM30.66 36.28L31.72 35.22C31.4874 34.9875 31.1849 34.8378 30.8589 34.7941C30.5329 34.7504 30.2016 34.815 29.916 34.978L30.66 36.28ZM36.32 30.62L34.992 29.924C34.8438 30.2071 34.7899 30.5301 34.8381 30.8459C34.8863 31.1618 35.0341 31.454 35.26 31.68L36.32 30.62ZM36.94 29.32L38.306 29.94L38.328 29.888L36.94 29.32ZM37.42 27.96V26.46C37.0982 26.4598 36.7848 26.5632 36.5262 26.7548C36.2677 26.9464 36.0775 27.2161 35.984 27.524L37.42 27.96ZM42 19.96V18.46C41.6022 18.46 41.2206 18.618 40.9393 18.8993C40.658 19.1806 40.5 19.5622 40.5 19.96H42ZM42 18.5H37.42V21.5H42V18.5ZM38.854 19.564C38.7006 19.0592 38.5251 18.5614 38.328 18.072L35.552 19.208C35.712 19.598 35.856 20.014 35.984 20.436L38.854 19.564ZM38.328 18.072C38.131 17.5922 37.9107 17.1224 37.668 16.664L35.012 18.056C35.212 18.442 35.392 18.82 35.552 19.208L38.328 18.072ZM37.4 18.42L40.64 15.18L38.52 13.06L35.28 16.3L37.4 18.42ZM40.64 15.18C41.6701 14.1474 42.2485 12.7485 42.2485 11.29C42.2485 9.83151 41.6701 8.43256 40.64 7.4L38.52 9.52C38.9883 9.99006 39.2512 10.6265 39.2512 11.29C39.2512 11.9535 38.9883 12.5899 38.52 13.06L40.64 15.18ZM40.64 7.4C39.6074 6.36995 38.2085 5.79148 36.75 5.79148C35.2915 5.79148 33.8926 6.36995 32.86 7.4L34.98 9.52C35.4501 9.05175 36.0865 8.78884 36.75 8.78884C37.4135 8.78884 38.0499 9.05175 38.52 9.52L40.64 7.4ZM32.86 7.4L29.62 10.64L31.74 12.76L34.98 9.52L32.86 7.4ZM31.376 10.372C30.9176 10.1293 30.4478 9.90905 29.968 9.712L28.832 12.488C29.22 12.648 29.598 12.828 29.984 13.028L31.376 10.372ZM29.4 11.1V9.6H29.38V12.6H29.4V11.1ZM29.948 9.712C29.4662 9.51211 28.975 9.3359 28.476 9.184L27.604 12.056C28.012 12.18 28.408 12.324 28.812 12.488L29.948 9.712ZM29.54 10.62V6H26.54V10.62H29.54ZM29.54 6C29.5368 4.54228 28.9563 3.14518 27.9256 2.11441C26.8948 1.08365 25.4977 0.50317 24.04 0.5V3.5C25.412 3.5 26.54 4.628 26.54 6H29.54ZM24.04 0.5C22.5823 0.50317 21.1852 1.08365 20.1544 2.11441C19.1237 3.14518 18.5432 4.54228 18.54 6H21.54C21.54 4.628 22.668 3.5 24.04 3.5V0.5ZM18.54 6V10.58H21.54V6H18.54ZM19.604 9.144C19.105 9.2959 18.6138 9.47211 18.132 9.672L19.268 12.448C19.672 12.284 20.068 12.14 20.476 12.016L19.604 9.144ZM18.7 11.06V9.56H18.68V12.56H18.7V11.06ZM18.112 9.672C17.62 9.872 17.158 10.092 16.704 10.332L18.096 12.988C18.482 12.788 18.86 12.608 19.248 12.448L18.112 9.672ZM18.46 10.6L15.22 7.36L13.1 9.48L16.34 12.72L18.46 10.6ZM15.22 7.36C14.1874 6.32995 12.7885 5.75148 11.33 5.75148C9.87151 5.75148 8.47256 6.32995 7.44 7.36L9.56 9.48C10.0301 9.01175 10.6665 8.74884 11.33 8.74884C11.9935 8.74884 12.6299 9.01175 13.1 9.48L15.22 7.36ZM7.44 7.36C6.40995 8.39256 5.83148 9.79151 5.83148 11.25C5.83148 12.7085 6.40995 14.1074 7.44 15.14L9.56 13.02C9.09175 12.5499 8.82884 11.9135 8.82884 11.25C8.82884 10.5865 9.09175 9.95006 9.56 9.48L7.44 7.36ZM7.44 15.14L10.68 18.38L12.8 16.26L9.56 13.02L7.44 15.14ZM10.412 16.624C10.172 17.078 9.952 17.54 9.752 18.032L12.528 19.168C12.688 18.78 12.868 18.402 13.068 18.016L10.412 16.624ZM9.752 18.032C9.552 18.522 9.376 19.026 9.224 19.524L12.096 20.396C12.224 19.974 12.368 19.558 12.528 19.168L9.752 18.032ZM10.66 18.46H6V21.46H10.66V18.46ZM6 18.46C4.54228 18.4632 3.14518 19.0436 2.11441 20.0744C1.08365 21.1052 0.50317 22.5023 0.5 23.96H3.5C3.5 22.588 4.628 21.46 6 21.46V18.46ZM0.5 23.96C0.50317 25.4177 1.08365 26.8148 2.11441 27.8456C3.14518 28.8763 4.54228 29.4568 6 29.46V26.46C4.628 26.46 3.5 25.332 3.5 23.96H0.5ZM6 29.46H10.58V26.46H6V29.46ZM9.144 28.396C9.296 28.894 9.472 29.398 9.672 29.888L12.448 28.752C12.285 28.3496 12.1409 27.9398 12.016 27.524L9.144 28.396ZM9.672 29.888C9.866 30.362 10.092 30.868 10.378 31.364L12.982 29.876C12.7808 29.5128 12.6025 29.1374 12.448 28.752L9.672 29.888ZM10.62 29.56L7.38 32.8L9.5 34.92L12.74 31.68L10.62 29.56ZM7.38 32.8C6.34995 33.8326 5.77148 35.2315 5.77148 36.69C5.77148 38.1485 6.34995 39.5474 7.38 40.58L9.5 38.46C9.03175 37.9899 8.76884 37.3535 8.76884 36.69C8.76884 36.0265 9.03175 35.3901 9.5 34.92L7.38 32.8ZM7.38 40.58C8.41256 41.6101 9.81151 42.1885 11.27 42.1885C12.7285 42.1885 14.1274 41.6101 15.16 40.58L13.04 38.46C12.5699 38.9282 11.9335 39.1912 11.27 39.1912C10.6065 39.1912 9.97006 38.9282 9.5 38.46L7.38 40.58ZM15.16 40.58L18.4 37.34L16.28 35.22L13.04 38.46L15.16 40.58ZM16.644 37.608C17.108 37.852 17.586 38.068 18.02 38.266L19.26 35.534C18.8466 35.3516 18.4384 35.1575 18.036 34.952L16.644 37.608ZM18.072 38.288C18.562 38.488 19.066 38.664 19.564 38.816L20.436 35.944C20.0202 35.8191 19.6104 35.675 19.208 35.512L18.072 38.288ZM18.5 37.38V41.96H21.5V37.38H18.5ZM18.5 41.96C18.5032 43.4177 19.0837 44.8148 20.1144 45.8456C21.1452 46.8763 22.5423 47.4568 24 47.46V44.46C22.628 44.46 21.5 43.332 21.5 41.96H18.5ZM24 47.46C25.4577 47.4568 26.8548 46.8763 27.8856 45.8456C28.9163 44.8148 29.4968 43.4177 29.5 41.96H26.5C26.5 43.332 25.372 44.46 24 44.46V47.46ZM29.5 41.96V37.38H26.5V41.96H29.5ZM28.436 38.814C28.934 38.664 29.438 38.488 29.928 38.288L28.792 35.512C28.402 35.672 27.986 35.816 27.564 35.944L28.436 38.814ZM29.928 38.288C30.402 38.094 30.908 37.868 31.404 37.582L29.916 34.978C29.5528 35.1792 29.1774 35.3575 28.792 35.512L29.928 38.288ZM29.6 37.34L32.84 40.58L34.96 38.46L31.72 35.22L29.6 37.34ZM32.84 40.58C33.8726 41.6101 35.2715 42.1885 36.73 42.1885C38.1885 42.1885 39.5874 41.6101 40.62 40.58L38.5 38.46C38.0299 38.9282 37.3935 39.1912 36.73 39.1912C36.0665 39.1912 35.4301 38.9282 34.96 38.46L32.84 40.58ZM40.62 40.58C41.6501 39.5474 42.2285 38.1485 42.2285 36.69C42.2285 35.2315 41.6501 33.8326 40.62 32.8L38.5 34.92C38.9683 35.3901 39.2312 36.0265 39.2312 36.69C39.2312 37.3535 38.9683 37.9899 38.5 38.46L40.62 40.58ZM40.62 32.8L37.38 29.56L35.26 31.68L38.5 34.92L40.62 32.8ZM37.648 31.316C37.892 30.852 38.108 30.374 38.306 29.94L35.574 28.7C35.3916 29.1134 35.1975 29.5216 34.992 29.924L37.648 31.316ZM38.328 29.888C38.528 29.398 38.704 28.894 38.854 28.396L35.984 27.524C35.8585 27.9398 35.7156 28.3496 35.552 28.752L38.328 29.888ZM37.42 29.46H42V26.46H37.42V29.46ZM42 29.46C43.4577 29.4568 44.8548 28.8763 45.8856 27.8456C46.9164 26.8148 47.4968 25.4177 47.5 23.96H44.5C44.5 25.332 43.372 26.46 42 26.46V29.46ZM47.5 23.96C47.4968 22.5023 46.9164 21.1052 45.8856 20.0744C44.8548 19.0436 43.4577 18.4632 42 18.46V21.46C43.372 21.46 44.5 22.588 44.5 23.96H47.5ZM40.5 19.96V20H43.5V19.96H40.5ZM30.5 24C30.5 24.8536 30.3319 25.6988 30.0052 26.4874C29.6786 27.2761 29.1998 27.9926 28.5962 28.5962C27.9926 29.1998 27.2761 29.6786 26.4874 30.0052C25.6988 30.3319 24.8536 30.5 24 30.5V33.5C26.5196 33.5 28.9359 32.4991 30.7175 30.7175C32.4991 28.9359 33.5 26.5196 33.5 24H30.5ZM24 30.5C22.2761 30.5 20.6228 29.8152 19.4038 28.5962C18.1848 27.3772 17.5 25.7239 17.5 24H14.5C14.5 26.5196 15.5009 28.9359 17.2825 30.7175C19.0641 32.4991 21.4804 33.5 24 33.5V30.5ZM17.5 24C17.5 22.2761 18.1848 20.6228 19.4038 19.4038C20.6228 18.1848 22.2761 17.5 24 17.5V14.5C21.4804 14.5 19.0641 15.5009 17.2825 17.2825C15.5009 19.0641 14.5 21.4804 14.5 24H17.5ZM24 17.5C25.7239 17.5 27.3772 18.1848 28.5962 19.4038C29.8152 20.6228 30.5 22.2761 30.5 24H33.5C33.5 21.4804 32.4991 19.0641 30.7175 17.2825C28.9359 15.5009 26.5196 14.5 24 14.5V17.5Z" fill="#6353F2"/>
</g>
</g>
<defs>
<clipPath id="clip0_142_693">
<rect width="48" height="48" fill="white"/>
</clipPath>
</defs>
</svg>
