<svg width="90" height="103" viewBox="0 0 90 103" fill="none" xmlns="http://www.w3.org/2000/svg">
<path d="M24.875 5H11.625C7.96611 5 5 7.96611 5 11.625V91.125C5 94.7839 7.96611 97.75 11.625 97.75H24.875C28.5339 97.75 31.5 94.7839 31.5 91.125V11.625C31.5 7.96611 28.5339 5 24.875 5Z" fill="#FFEB50" stroke="#E58A00" stroke-width="10" stroke-linecap="round"/>
<path d="M77.875 5H64.625C60.9661 5 58 7.96611 58 11.625V91.125C58 94.7839 60.9661 97.75 64.625 97.75H77.875C81.5339 97.75 84.5 94.7839 84.5 91.125V11.625C84.5 7.96611 81.5339 5 77.875 5Z" fill="#FFEB50" stroke="#E58A00" stroke-width="10" stroke-linecap="round"/>
</svg>
